<svg xmlns="http://www.w3.org/2000/svg" width="32" height="32" fill="none" viewBox="0 0 32 32"><g clip-path="url(#E)"><rect width="32" height="32" rx="8" fill="url(#B)"/><g filter="url(#A)"><path fill-rule="evenodd" d="M25.64 12.485c-.035.117.012.034-.077.147l-1.446 1.522c-.508.551-1.046 1.071-2.044 1.075-1.498.005-2.039-1.064-2.728-2.015l-.64-.923-1.327-1.857c-.081-.113-.318-.419-.329-.489-.006-.037-.001-.066.01-.093.218-.263.351-.607.351-.984 0-.825-.634-1.494-1.417-1.494s-1.417.669-1.417 1.494a1.59 1.59 0 0 0 .015.222c.018.184.062.309.123.424a1.5 1.5 0 0 0 .215.342l.039.064c.013.078-1.631 2.318-1.735 2.467l-1.314 1.84c-.961 1.166-2.387 1.342-3.56.412l-1.532-1.61c-.125-.128-.405-.375-.481-.543a.54.54 0 0 1 .038-.067c.276-.272.448-.66.448-1.09 0-.825-.634-1.494-1.417-1.494S4 10.504 4 11.329a1.53 1.53 0 0 0 .4 1.04.98.98 0 0 0 .137.131c.126.105.27.189.425.244l.029.019c.053.432.936 4.123 1.098 4.747.405 1.555.323 2.066.876 2.222h16.268l.253-.001.212.001h1.174c.371-.05.585-.223.71-.731l.553-2.376.844-3.547c.047-.239.019-.29.075-.339.55-.205.945-.758.945-1.409 0-.825-.634-1.494-1.417-1.494-.537 0-1.004.315-1.244.779l-.002.003-.001.003c-.221.422-.254.962.001 1.441.051.096.09.159.148.226l.155.199zM7.369 21.283h17.315c.392 0 .712.338.712.751v1.646c0 .413-.32.751-.712.751H7.369c-.392 0-.712-.338-.712-.751v-1.646c0-.413.32-.751.712-.751z" fill="#ff6b01"/><path fill-rule="evenodd" d="M25.64 12.172c-.035.116.012.034-.077.147l-1.446 1.522c-.508.551-1.046 1.071-2.044 1.075-1.498.005-2.039-1.064-2.728-2.015l-.64-.923-1.327-1.857c-.081-.113-.318-.42-.329-.489-.006-.037-.001-.066.01-.093.218-.263.351-.607.351-.984 0-.825-.634-1.494-1.417-1.494s-1.417.669-1.417 1.494a1.59 1.59 0 0 0 .015.222c.018.184.062.309.123.424a1.5 1.5 0 0 0 .215.342l.039.064c.013.078-1.631 2.318-1.735 2.467l-1.314 1.84c-.961 1.166-2.387 1.342-3.56.412l-1.532-1.61c-.125-.128-.405-.375-.481-.543a.53.53 0 0 1 .038-.066 1.53 1.53 0 0 0 .448-1.09c0-.825-.634-1.494-1.417-1.494S4 10.19 4 11.015a1.53 1.53 0 0 0 .4 1.04c.046.053.091.095.137.131.126.105.27.189.425.244l.029.018c.053.432.936 4.123 1.098 4.747.405 1.554.323 2.066.876 2.222h16.268l.253-.001.212.001h1.174c.371-.051.585-.222.71-.731l.553-2.376.844-3.547c.047-.239.019-.29.075-.339.55-.205.945-.758.945-1.409 0-.825-.634-1.494-1.417-1.494-.537 0-1.004.315-1.244.779l-.002.003-.001.003c-.221.422-.254.962.001 1.44a1.13 1.13 0 0 0 .148.226l.155.199zM7.369 20.97h17.315c.392 0 .712.338.712.751v1.646c0 .413-.32.751-.712.751H7.369c-.392 0-.712-.338-.712-.751V21.72c0-.413.32-.751.712-.751z" fill="url(#C)"/><path fill-rule="evenodd" d="M25.57 12.311l-.006.008-1.446 1.522c-.508.551-1.046 1.071-2.044 1.075-1.498.005-2.039-1.064-2.728-2.015l-.64-.923-1.327-1.857-.283-.397-.037.046c-.011.027-.015.056-.01.093.011.069.249.376.329.489l1.327 1.857.64.923c.689.951 1.23 2.02 2.728 2.015.998-.003 1.536-.523 2.044-1.074l1.446-1.522c.088-.114.042-.031.077-.147l-.071-.091zM17.406 8.67l.004-.115c0-.825-.634-1.494-1.417-1.494s-1.417.669-1.417 1.494l.004.115c.056-.771.667-1.378 1.413-1.378s1.357.607 1.413 1.379zm-2.507 1.064c-.313.49-1.574 2.209-1.665 2.339l-1.314 1.84c-.961 1.166-2.387 1.342-3.56.412l-1.532-1.61c-.097-.099-.287-.27-.403-.42l-.04.041a.53.53 0 0 0-.038.066c.076.168.357.415.481.543l1.532 1.61c1.173.931 2.599.754 3.56-.412l1.314-1.84 1.735-2.466-.039-.064-.032-.039zM6.829 11.13l.004-.115c0-.825-.634-1.494-1.417-1.494S4 10.19 4 11.015l.004.115c.056-.771.667-1.379 1.413-1.379s1.357.607 1.413 1.379zm21.166 0l.004-.115c0-.825-.634-1.494-1.417-1.494-.537 0-1.004.315-1.244.779l-.002.003-.001.003c-.131.251-.196.543-.174.839a1.57 1.57 0 0 1 .174-.609l.001-.003.002-.003c.24-.464.707-.779 1.244-.779.746 0 1.357.607 1.413 1.378zM7.369 20.97h17.315c.392 0 .712.338.712.751v.231c0-.413-.32-.751-.712-.751H7.369c-.392 0-.712.338-.712.751v-.231c0-.413.32-.751.712-.751z" fill="#fff"/></g></g><rect x=".6" y=".6" width="30.8" height="30.8" rx="7.4" stroke="url(#D)" stroke-width="1.2"/><defs><filter id="A" x="0" y="7.06" width="32" height="25.371" filterUnits="userSpaceOnUse" color-interpolation-filters="sRGB"><feFlood flood-opacity="0" result="A"/><feColorMatrix in="SourceAlpha" values="0 0 0 0 0 0 0 0 0 0 0 0 0 0 0 0 0 0 127 0" result="B"/><feOffset dy="4"/><feGaussianBlur stdDeviation="2"/><feComposite in2="B" operator="out"/><feColorMatrix values="0 0 0 0 0 0 0 0 0 0 0 0 0 0 0 0 0 0 0.3 0"/><feBlend in2="A"/><feBlend in="SourceGraphic"/></filter><linearGradient id="B" x1="16" y1="0" x2="16" y2="32" gradientUnits="userSpaceOnUse"><stop stop-color="#9d3af8"/><stop offset="1" stop-color="#46107e"/></linearGradient><linearGradient id="C" x1="8.008" y1="8.37" x2="24.703" y2="21.933" gradientUnits="userSpaceOnUse"><stop stop-color="#fce224"/><stop offset=".451" stop-color="#fddc27"/><stop offset=".6" stop-color="#ffd62a"/><stop offset="1" stop-color="#ff6b01"/></linearGradient><linearGradient id="D" x1="16" y1="0" x2="16" y2="32" gradientUnits="userSpaceOnUse"><stop stop-color="#f4b1ff" stop-opacity="0"/><stop offset="1" stop-color="#f4b1ff" stop-opacity=".08"/></linearGradient><clipPath id="E"><rect width="32" height="32" rx="8" fill="#fff"/></clipPath></defs></svg>
